<mxfile host="65bd71144e">
    <diagram id="lBV-_9WjTnWVPfjunfXr" name="High Level">
        <mxGraphModel dx="956" dy="537" grid="1" gridSize="10" guides="1" tooltips="1" connect="1" arrows="1" fold="1" page="1" pageScale="1" pageWidth="850" pageHeight="1100" math="0" shadow="0">
            <root>
                <mxCell id="0"/>
                <mxCell id="1" parent="0"/>
                <mxCell id="5" value="" style="edgeStyle=none;html=1;" edge="1" parent="1" source="3" target="4">
                    <mxGeometry relative="1" as="geometry"/>
                </mxCell>
                <mxCell id="3" value="FPGA" style="whiteSpace=wrap;html=1;aspect=fixed;" vertex="1" parent="1">
                    <mxGeometry x="40" y="40" width="80" height="80" as="geometry"/>
                </mxCell>
                <mxCell id="7" value="" style="edgeStyle=none;html=1;" edge="1" parent="1" source="4" target="6">
                    <mxGeometry relative="1" as="geometry"/>
                </mxCell>
                <mxCell id="4" value="MATLAB" style="whiteSpace=wrap;html=1;aspect=fixed;" vertex="1" parent="1">
                    <mxGeometry x="200" y="40" width="80" height="80" as="geometry"/>
                </mxCell>
                <mxCell id="6" value="Website" style="whiteSpace=wrap;html=1;aspect=fixed;" vertex="1" parent="1">
                    <mxGeometry x="360" y="40" width="80" height="80" as="geometry"/>
                </mxCell>
                <mxCell id="12" value="FPGA" style="swimlane;whiteSpace=wrap;html=1;" vertex="1" parent="1">
                    <mxGeometry x="40" y="160" width="320" height="160" as="geometry">
                        <mxRectangle x="40" y="160" width="70" height="30" as="alternateBounds"/>
                    </mxGeometry>
                </mxCell>
                <mxCell id="15" value="" style="edgeStyle=none;html=1;" edge="1" parent="12">
                    <mxGeometry relative="1" as="geometry">
                        <mxPoint x="120" y="100" as="sourcePoint"/>
                        <mxPoint x="200" y="100" as="targetPoint"/>
                    </mxGeometry>
                </mxCell>
                <mxCell id="18" value="&lt;font style=&quot;color: light-dark(rgb(0, 0, 0), rgb(237, 237, 237));&quot;&gt;Axi4&amp;nbsp;&lt;span style=&quot;background-color: light-dark(#ffffff, var(--ge-dark-color, #121212));&quot;&gt;Lite&lt;/span&gt;&lt;/font&gt;" style="edgeLabel;html=1;align=center;verticalAlign=middle;resizable=0;points=[];" vertex="1" connectable="0" parent="15">
                    <mxGeometry x="-0.0267" y="1" relative="1" as="geometry">
                        <mxPoint x="1" y="-9" as="offset"/>
                    </mxGeometry>
                </mxCell>
                <mxCell id="13" value="" style="whiteSpace=wrap;html=1;aspect=fixed;" vertex="1" parent="12">
                    <mxGeometry x="40" y="40" width="80" height="80" as="geometry"/>
                </mxCell>
                <mxCell id="16" value="" style="edgeStyle=none;html=1;" edge="1" parent="12">
                    <mxGeometry relative="1" as="geometry">
                        <mxPoint x="200" y="70" as="sourcePoint"/>
                        <mxPoint x="120" y="70" as="targetPoint"/>
                    </mxGeometry>
                </mxCell>
                <mxCell id="17" value="&lt;font style=&quot;color: light-dark(rgb(0, 0, 0), rgb(237, 237, 237));&quot;&gt;Axi4 Stream&lt;/font&gt;" style="edgeLabel;html=1;align=center;verticalAlign=middle;resizable=0;points=[];" vertex="1" connectable="0" parent="16">
                    <mxGeometry x="0.1014" y="1" relative="1" as="geometry">
                        <mxPoint x="4" y="-11" as="offset"/>
                    </mxGeometry>
                </mxCell>
                <mxCell id="14" value="Linux" style="whiteSpace=wrap;html=1;aspect=fixed;" vertex="1" parent="12">
                    <mxGeometry x="200" y="40" width="80" height="80" as="geometry"/>
                </mxCell>
            </root>
        </mxGraphModel>
    </diagram>
    <diagram id="npDumwKwoAgQNvZ47iKn" name="Page-2">
        <mxGraphModel dx="956" dy="537" grid="1" gridSize="10" guides="1" tooltips="1" connect="1" arrows="1" fold="1" page="1" pageScale="1" pageWidth="850" pageHeight="1100" math="0" shadow="0">
            <root>
                <mxCell id="0"/>
                <mxCell id="1" parent="0"/>
                <mxCell id="tSoNvV3gvbCHXeXe4hav-4" value="" style="edgeStyle=none;html=1;labelBackgroundColor=none;fontColor=light-dark(#000000,#EDEDED);" edge="1" parent="1" source="tSoNvV3gvbCHXeXe4hav-1" target="tSoNvV3gvbCHXeXe4hav-3">
                    <mxGeometry relative="1" as="geometry"/>
                </mxCell>
                <mxCell id="tSoNvV3gvbCHXeXe4hav-8" value="" style="edgeStyle=none;html=1;labelBackgroundColor=none;fontColor=light-dark(#000000,#EDEDED);" edge="1" parent="1" source="tSoNvV3gvbCHXeXe4hav-1" target="tSoNvV3gvbCHXeXe4hav-3">
                    <mxGeometry relative="1" as="geometry"/>
                </mxCell>
                <mxCell id="tSoNvV3gvbCHXeXe4hav-9" value="" style="edgeStyle=none;html=1;labelBackgroundColor=none;fontColor=light-dark(#000000,#EDEDED);" edge="1" parent="1" source="tSoNvV3gvbCHXeXe4hav-1" target="tSoNvV3gvbCHXeXe4hav-3">
                    <mxGeometry relative="1" as="geometry"/>
                </mxCell>
                <mxCell id="tSoNvV3gvbCHXeXe4hav-12" value="&lt;span style=&quot;&quot;&gt;&lt;font style=&quot;color: light-dark(rgb(0, 0, 0), rgb(237, 237, 237));&quot;&gt;CalibrateEn = 1&lt;/font&gt;&lt;/span&gt;" style="edgeLabel;html=1;align=center;verticalAlign=middle;resizable=0;points=[];labelBackgroundColor=none;fontColor=light-dark(#000000,#EDEDED);" vertex="1" connectable="0" parent="tSoNvV3gvbCHXeXe4hav-9">
                    <mxGeometry x="-0.37" y="1" relative="1" as="geometry">
                        <mxPoint x="15" y="-19" as="offset"/>
                    </mxGeometry>
                </mxCell>
                <mxCell id="tSoNvV3gvbCHXeXe4hav-11" value="" style="edgeStyle=elbowEdgeStyle;html=1;labelBackgroundColor=none;fontColor=light-dark(#000000,#EDEDED);exitX=0.5;exitY=1;exitDx=0;exitDy=0;rounded=0;curved=0;" edge="1" parent="1" source="tSoNvV3gvbCHXeXe4hav-1" target="tSoNvV3gvbCHXeXe4hav-10">
                    <mxGeometry relative="1" as="geometry">
                        <Array as="points">
                            <mxPoint x="110" y="150"/>
                        </Array>
                    </mxGeometry>
                </mxCell>
                <mxCell id="tSoNvV3gvbCHXeXe4hav-13" value="&lt;span style=&quot;&quot;&gt;&lt;font style=&quot;color: light-dark(rgb(0, 0, 0), rgb(237, 237, 237));&quot;&gt;CalibrateEn = 0&lt;/font&gt;&lt;/span&gt;" style="edgeLabel;html=1;align=center;verticalAlign=middle;resizable=0;points=[];labelBackgroundColor=none;fontColor=light-dark(#000000,#EDEDED);" vertex="1" connectable="0" parent="tSoNvV3gvbCHXeXe4hav-11">
                    <mxGeometry x="-0.16" y="2" relative="1" as="geometry">
                        <mxPoint x="91" y="-18" as="offset"/>
                    </mxGeometry>
                </mxCell>
                <mxCell id="tSoNvV3gvbCHXeXe4hav-1" value="Idle" style="shape=umlState;rounded=1;verticalAlign=top;spacingTop=5;umlStateSymbol=collapseState;absoluteArcSize=1;arcSize=10;html=1;whiteSpace=wrap;labelBackgroundColor=none;fontColor=light-dark(#000000,#EDEDED);" vertex="1" parent="1">
                    <mxGeometry x="40" y="40" width="140" height="60" as="geometry"/>
                </mxCell>
                <mxCell id="tSoNvV3gvbCHXeXe4hav-6" value="" style="edgeStyle=none;html=1;labelBackgroundColor=none;fontColor=light-dark(#000000,#EDEDED);" edge="1" parent="1" source="tSoNvV3gvbCHXeXe4hav-3" target="tSoNvV3gvbCHXeXe4hav-5">
                    <mxGeometry relative="1" as="geometry"/>
                </mxCell>
                <mxCell id="tSoNvV3gvbCHXeXe4hav-3" value="Calibrate" style="shape=umlState;rounded=1;verticalAlign=top;spacingTop=5;umlStateSymbol=collapseState;absoluteArcSize=1;arcSize=10;html=1;whiteSpace=wrap;labelBackgroundColor=none;fontColor=light-dark(#000000,#EDEDED);" vertex="1" parent="1">
                    <mxGeometry x="310" y="40" width="140" height="60" as="geometry"/>
                </mxCell>
                <mxCell id="tSoNvV3gvbCHXeXe4hav-5" value="Add to Database Table 2" style="shape=umlState;rounded=1;verticalAlign=top;spacingTop=5;umlStateSymbol=collapseState;absoluteArcSize=1;arcSize=10;html=1;whiteSpace=wrap;labelBackgroundColor=none;fontColor=light-dark(#000000,#EDEDED);" vertex="1" parent="1">
                    <mxGeometry x="510" y="40" width="140" height="60" as="geometry"/>
                </mxCell>
                <mxCell id="tSoNvV3gvbCHXeXe4hav-15" value="" style="edgeStyle=none;html=1;fontColor=light-dark(#000000,#EDEDED);labelBackgroundColor=none;" edge="1" parent="1" source="tSoNvV3gvbCHXeXe4hav-10" target="tSoNvV3gvbCHXeXe4hav-14">
                    <mxGeometry relative="1" as="geometry"/>
                </mxCell>
                <mxCell id="tSoNvV3gvbCHXeXe4hav-10" value="Raw" style="shape=umlState;rounded=1;verticalAlign=top;spacingTop=5;umlStateSymbol=collapseState;absoluteArcSize=1;arcSize=10;html=1;whiteSpace=wrap;labelBackgroundColor=none;fontColor=light-dark(#000000,#EDEDED);" vertex="1" parent="1">
                    <mxGeometry x="310" y="160" width="140" height="60" as="geometry"/>
                </mxCell>
                <mxCell id="tSoNvV3gvbCHXeXe4hav-14" value="&lt;span style=&quot;&quot;&gt;&lt;font style=&quot;color: light-dark(rgb(0, 0, 0), rgb(237, 237, 237));&quot;&gt;Add to Database Table 1&lt;/font&gt;&lt;/span&gt;" style="shape=umlState;rounded=1;verticalAlign=top;spacingTop=5;umlStateSymbol=collapseState;absoluteArcSize=1;arcSize=10;html=1;whiteSpace=wrap;labelBackgroundColor=none;fontColor=light-dark(#000000,#EDEDED);" vertex="1" parent="1">
                    <mxGeometry x="510" y="160" width="140" height="60" as="geometry"/>
                </mxCell>
            </root>
        </mxGraphModel>
    </diagram>
</mxfile>